# Blender v2.77 (sub 0) OBJ File: 'CandyCane.blend'
# www.blender.org
mtllib CandyCane.mtl
o Cylinder
v 0.167725 -0.022237 -0.313950
v 0.829935 7.734666 -0.339098
v 0.389721 -0.022237 -0.221996
v 0.957485 7.552970 -0.247144
v 0.481675 -0.022237 0.000000
v 1.010317 7.477709 -0.025148
v 0.389721 -0.022237 0.221996
v 0.957485 7.552970 0.196848
v 0.167725 -0.022237 0.313950
v 0.829935 7.734666 0.288802
v -0.054271 -0.022237 0.221996
v 0.702386 7.916362 0.196848
v -0.146225 -0.022237 -0.000000
v 0.649553 7.991623 -0.025148
v -0.054271 -0.022237 -0.221996
v 0.702386 7.916362 -0.247144
v 0.167725 1.365669 -0.313950
v 0.167725 2.753575 -0.313950
v 0.167725 4.141481 -0.313950
v 0.191582 5.553621 -0.312860
v 0.219554 6.825409 -0.317198
v 0.460694 6.803059 -0.225817
v 0.413578 5.553620 -0.220906
v 0.389721 4.141480 -0.221996
v 0.389721 2.753574 -0.221996
v 0.389721 1.365669 -0.221996
v 0.561062 6.793520 -0.004073
v 0.505532 5.553620 0.001090
v 0.481675 4.141480 0.000000
v 0.481675 2.753574 0.000000
v 0.481675 1.365669 0.000000
v 0.460694 6.803059 0.218175
v 0.413578 5.553620 0.223086
v 0.389721 4.141480 0.221996
v 0.389721 2.753574 0.221996
v 0.389721 1.365669 0.221996
v 0.219554 6.825409 0.310702
v 0.191582 5.553620 0.315039
v 0.167725 4.141480 0.313950
v 0.167725 2.753574 0.313950
v 0.167725 1.365669 0.313950
v -0.019972 6.846821 0.219274
v -0.030414 5.553620 0.223086
v -0.054271 4.141480 0.221996
v -0.054271 2.753574 0.221996
v -0.054271 1.365669 0.221996
v -0.118725 6.855422 -0.002518
v -0.122368 5.553620 0.001090
v -0.146225 4.141480 -0.000000
v -0.146225 2.753574 -0.000000
v -0.146225 1.365669 -0.000000
v -0.019972 6.846821 -0.224718
v -0.030414 5.553620 -0.220906
v -0.054271 4.141480 -0.221996
v -0.054271 2.753574 -0.221996
v -0.054271 1.365669 -0.221996
v 1.659451 7.979649 -0.262617
v 1.666224 7.757756 -0.170663
v 1.669029 7.665844 0.051333
v 1.666224 7.757756 0.273329
v 1.659451 7.979649 0.365283
v 1.652680 8.201542 0.273329
v 1.649874 8.293452 0.051333
v 1.652680 8.201542 -0.170663
v 2.528516 7.815061 -0.170873
v 2.414712 7.624454 -0.078919
v 2.367573 7.545502 0.143077
v 2.414712 7.624454 0.365073
v 2.528516 7.815061 0.457027
v 2.642321 8.005668 0.365073
v 2.689459 8.084620 0.143077
v 2.642321 8.005668 -0.078919
v 3.158310 6.870989 -0.101056
v 2.947021 6.802877 -0.009102
v 2.859501 6.774665 0.212894
v 2.947021 6.802877 0.434890
v 3.158310 6.870989 0.526844
v 3.369600 6.939100 0.434890
v 3.457118 6.967313 0.212894
v 3.369600 6.939100 -0.009102
v 3.144794 5.554831 -0.073320
v 2.925743 5.590874 0.018634
v 2.835009 5.605804 0.240630
v 2.925743 5.590874 0.462626
v 3.144794 5.554831 0.554580
v 3.363845 5.518787 0.462626
v 3.454578 5.503858 0.240630
v 3.363845 5.518787 0.018634
v 0.524745 7.280037 -0.328148
v 0.709089 7.178015 -0.236481
v 0.785690 7.135614 -0.014610
v 0.709089 7.178015 0.207512
v 0.524745 7.280037 0.299752
v 0.341207 7.381592 0.208061
v 0.265414 7.423523 -0.013833
v 0.341207 7.381592 -0.235931
v 1.311854 7.655363 0.235089
v 1.244693 7.857157 0.327043
v 1.149714 8.142538 0.013093
v 1.177533 8.058952 -0.208903
v 1.311854 7.655363 -0.208903
v 1.339673 7.571776 0.013093
v 1.177533 8.058952 0.235089
v 1.244693 7.857157 -0.300857
v 2.169667 8.189035 0.097205
v 2.147500 8.103605 -0.124791
v 2.093984 7.897355 0.411155
v 2.147500 8.103605 0.319201
v 2.018301 7.605673 0.097205
v 2.040468 7.691105 0.319201
v 2.093984 7.897355 -0.216745
v 2.040468 7.691105 -0.124791
v 2.680866 7.213666 -0.044011
v 2.613537 7.160083 0.177985
v 3.073288 7.525966 0.177985
v 3.005960 7.472383 -0.044011
v 2.843413 7.343025 0.491935
v 3.005960 7.472383 0.399981
v 2.680866 7.213666 0.399981
v 2.843413 7.343025 -0.135964
v 3.402768 6.248240 0.004766
v 3.186132 6.212910 -0.087188
v 3.402768 6.248240 0.448758
v 3.492501 6.262876 0.226762
v 2.969496 6.177579 0.448758
v 3.186132 6.212910 0.540712
v 2.969496 6.177579 0.004766
v 2.879763 6.162945 0.226762
v 0.205568 6.189515 -0.315029
v 0.437136 6.178340 -0.223362
v 0.533297 6.173570 -0.001492
v 0.437136 6.178340 0.220630
v 0.205568 6.189515 0.312871
v -0.025193 6.200221 0.221180
v -0.120546 6.204521 -0.000714
v -0.025193 6.200221 -0.222812
v 0.179653 4.847551 -0.313405
v 0.401650 4.847550 -0.221451
v 0.493603 4.847550 0.000545
v 0.401650 4.847550 0.222541
v 0.179653 4.847550 0.314495
v -0.042343 4.847550 0.222541
v -0.134296 4.847550 0.000545
v -0.042343 4.847550 -0.221451
v 0.167725 3.447528 -0.313950
v 0.389721 3.447527 -0.221996
v 0.481675 3.447527 0.000000
v 0.389721 3.447527 0.221996
v 0.167725 3.447527 0.313950
v -0.054271 3.447527 0.221996
v -0.146225 3.447527 -0.000000
v -0.054271 3.447527 -0.221996
v 0.167725 2.059622 -0.313950
v 0.389721 2.059622 -0.221996
v 0.481675 2.059622 0.000000
v 0.389721 2.059622 0.221996
v 0.167725 2.059622 0.313950
v -0.054271 2.059622 0.221996
v -0.146225 2.059622 -0.000000
v -0.054271 2.059622 -0.221996
v 0.389721 0.671716 -0.221996
v 0.481675 0.671716 0.000000
v 0.389721 0.671716 0.221996
v 0.167725 0.671716 0.313950
v -0.054271 0.671716 0.221996
v -0.146225 0.671716 -0.000000
v -0.054271 0.671716 -0.221996
v 0.167725 0.671716 -0.313950
vn 0.000000 -1.000000 0.000000
vn -0.339800 0.208300 -0.917100
vn -0.775300 0.516600 -0.363300
vn -0.768800 0.526900 0.362400
vn -0.326000 0.240100 0.914400
vn 0.339600 -0.202700 0.918500
vn 0.780600 -0.504000 0.369800
vn 0.771000 -0.519500 -0.368400
vn 0.323700 -0.239800 -0.915300
vn -0.294300 0.881700 0.368900
vn 0.219400 -0.905300 0.363700
vn 0.191800 -0.343500 -0.919400
vn -0.045000 0.413300 -0.909500
vn -0.182700 0.348200 0.919500
vn 0.294600 -0.881600 -0.368900
vn -0.241800 0.898800 -0.365500
vn 0.032200 -0.418800 0.907500
vn -0.114100 -0.920900 -0.372800
vn -0.172100 -0.372900 0.911800
vn 0.149000 0.916000 0.372400
vn 0.162700 0.374400 -0.912900
vn 0.030900 -0.397300 -0.917200
vn -0.205800 -0.905700 0.370700
vn -0.013900 0.395900 0.918200
vn 0.213800 0.903900 -0.370400
vn -0.388000 -0.184000 0.903100
vn 0.759700 0.542900 0.357900
vn 0.379000 0.192900 -0.905100
vn -0.298300 -0.268800 -0.915800
vn -0.801200 -0.484500 0.351200
vn 0.300700 0.266600 0.915700
vn 0.782000 0.512600 -0.354600
vn -0.771300 -0.527400 -0.356300
vn -0.387400 -0.035100 -0.921200
vn -0.927700 -0.023700 0.372600
vn 0.387100 0.036400 0.921300
vn 0.926800 0.038100 -0.373700
vn -0.926600 -0.040400 -0.373800
vn -0.395700 0.004300 0.918400
vn 0.925700 0.052900 0.374700
vn 0.395100 -0.001000 -0.918700
vn 0.374900 -0.014600 -0.926900
vn 0.919900 -0.039500 -0.390300
vn 0.920100 -0.036400 0.390100
vn 0.376100 -0.007800 0.926600
vn -0.375700 0.008600 0.926700
vn -0.921300 0.006100 0.388800
vn -0.921400 0.003900 -0.388700
vn -0.376700 0.002700 -0.926300
vn 0.382700 -0.005800 -0.923900
vn 0.923800 -0.015300 -0.382600
vn 0.923800 -0.015900 0.382600
vn 0.382700 -0.007200 0.923900
vn -0.382700 0.005800 0.923900
vn -0.923800 0.015300 0.382600
vn -0.923800 0.015900 -0.382600
vn -0.382700 0.007200 -0.923900
vn 0.382700 0.000000 -0.923900
vn 0.923900 0.000000 -0.382700
vn 0.923900 0.000000 0.382700
vn 0.382700 0.000000 0.923900
vn -0.382700 0.000000 0.923900
vn -0.923900 0.000000 0.382700
vn -0.923900 0.000000 -0.382700
vn -0.382700 0.000000 -0.923900
vn 0.322100 -0.238800 -0.916100
vn 0.772700 -0.520500 -0.363300
vn 0.782900 -0.505800 0.362200
vn 0.349100 -0.209200 0.913400
vn -0.323500 0.238400 0.915700
vn -0.768900 0.527000 0.361900
vn 0.024000 -0.394500 0.918600
vn -0.776000 0.517000 -0.361200
vn -0.346800 0.213100 -0.913400
vn -0.365400 0.002500 -0.930800
vn -0.916300 0.003800 -0.400400
vn -0.916100 0.006100 0.401000
vn -0.362300 0.008400 0.932000
vn 0.363600 -0.007400 0.931500
vn 0.913500 -0.036000 0.405200
vn 0.913100 -0.039300 -0.405800
vn 0.360200 -0.014100 -0.932800
vn 0.213800 0.904800 -0.368300
vn -0.240800 0.896800 -0.371100
vn 0.294600 -0.881600 -0.368800
vn -0.186700 0.363600 0.912700
vn -0.037900 0.392300 -0.919100
vn 0.196300 -0.361400 -0.911500
vn 0.217700 -0.902400 0.371700
vn -0.294300 0.881700 0.368800
vn -0.768200 -0.526100 -0.364800
vn -0.007400 0.423000 0.906100
vn -0.205600 -0.906900 0.367900
vn 0.023500 -0.428500 -0.903200
vn 0.160300 0.358600 -0.919600
vn 0.150400 0.919200 0.363800
vn -0.169600 -0.354600 0.919500
vn -0.116500 -0.925400 -0.360800
vn 0.388500 -0.040900 -0.920500
vn 0.778800 0.509800 -0.365500
vn 0.306300 0.270200 0.912800
vn -0.796800 -0.480400 0.366400
vn -0.304800 -0.272800 -0.912500
vn 0.357300 0.177500 -0.917000
vn 0.757600 0.541800 0.364000
vn -0.363100 -0.166500 0.916800
vn -0.162400 -0.986700 -0.000000
vn 0.925600 -0.040800 0.376300
vn -0.388400 0.047100 0.920300
vn -0.924600 0.062400 -0.375900
vn 0.925000 -0.054800 -0.376000
vn 0.388900 -0.004100 0.921300
vn -0.923400 0.080500 0.375400
vn -0.388900 0.006100 -0.921300
g Cylinder_Cylinder_White
usemtl White
s off
f 1//1 3//1 5//1 7//1 9//1 11//1 13//1 15//1
f 52//2 96//2 89//2 21//2
f 47//3 95//3 96//3 52//3
f 42//4 94//4 95//4 47//4
f 37//5 93//5 94//5 42//5
f 32//6 92//6 93//6 37//6
f 27//7 91//7 92//7 32//7
f 22//8 90//8 91//8 27//8
f 21//9 89//9 90//9 22//9
f 14//10 12//10 103//10 99//10
f 8//11 6//11 102//11 97//11
f 4//12 2//12 104//12 101//12
f 2//13 16//13 100//13 104//13
f 12//14 10//14 98//14 103//14
f 6//15 4//15 101//15 102//15
f 16//16 14//16 99//16 100//16
f 10//17 8//17 97//17 98//17
f 59//18 58//18 112//18 109//18
f 61//19 60//19 110//19 107//19
f 63//20 62//20 108//20 105//20
f 57//21 64//21 106//21 111//21
f 58//22 57//22 111//22 112//22
f 60//23 59//23 109//23 110//23
f 62//24 61//24 107//24 108//24
f 64//25 63//25 105//25 106//25
f 69//26 68//26 119//26 117//26
f 71//27 70//27 118//27 115//27
f 65//28 72//28 116//28 120//28
f 66//29 65//29 120//29 113//29
f 68//30 67//30 114//30 119//30
f 70//31 69//31 117//31 118//31
f 72//32 71//32 115//32 116//32
f 67//33 66//33 113//33 114//33
f 74//34 73//34 122//34 127//34
f 76//35 75//35 128//35 125//35
f 78//36 77//36 126//36 123//36
f 80//37 79//37 124//37 121//37
f 75//38 74//38 127//38 128//38
f 77//39 76//39 125//39 126//39
f 79//40 78//40 123//40 124//40
f 73//41 80//41 121//41 122//41
f 20//42 129//42 130//42 23//42
f 23//43 130//43 131//43 28//43
f 28//44 131//44 132//44 33//44
f 33//45 132//45 133//45 38//45
f 38//46 133//46 134//46 43//46
f 43//47 134//47 135//47 48//47
f 48//48 135//48 136//48 53//48
f 53//49 136//49 129//49 20//49
f 19//50 137//50 138//50 24//50
f 24//51 138//51 139//51 29//51
f 29//52 139//52 140//52 34//52
f 34//53 140//53 141//53 39//53
f 39//54 141//54 142//54 44//54
f 44//55 142//55 143//55 49//55
f 49//56 143//56 144//56 54//56
f 54//57 144//57 137//57 19//57
f 18//58 145//58 146//58 25//58
f 25//59 146//59 147//59 30//59
f 30//60 147//60 148//60 35//60
f 35//61 148//61 149//61 40//61
f 40//62 149//62 150//62 45//62
f 45//63 150//63 151//63 50//63
f 50//64 151//64 152//64 55//64
f 55//65 152//65 145//65 18//65
f 17//58 153//58 154//58 26//58
f 26//59 154//59 155//59 31//59
f 31//60 155//60 156//60 36//60
f 36//61 156//61 157//61 41//61
f 41//62 157//62 158//62 46//62
f 46//63 158//63 159//63 51//63
f 51//64 159//64 160//64 56//64
f 56//65 160//65 153//65 17//65
f 1//58 168//58 161//58 3//58
f 3//59 161//59 162//59 5//59
f 5//60 162//60 163//60 7//60
f 7//61 163//61 164//61 9//61
f 9//62 164//62 165//62 11//62
f 11//63 165//63 166//63 13//63
f 13//64 166//64 167//64 15//64
f 15//65 167//65 168//65 1//65
g Cylinder_Cylinder_Red
usemtl Red
f 89//66 2//66 4//66 90//66
f 90//67 4//67 6//67 91//67
f 91//68 6//68 8//68 92//68
f 92//69 8//69 10//69 93//69
f 93//70 10//70 12//70 94//70
f 94//71 12//71 14//71 95//71
f 98//72 97//72 60//72 61//72
f 95//73 14//73 16//73 96//73
f 96//74 16//74 2//74 89//74
f 167//65 56//65 17//65 168//65
f 160//65 55//65 18//65 153//65
f 152//65 54//65 19//65 145//65
f 144//57 53//57 20//57 137//57
f 136//75 52//75 21//75 129//75
f 166//64 51//64 56//64 167//64
f 159//64 50//64 55//64 160//64
f 151//64 49//64 54//64 152//64
f 143//56 48//56 53//56 144//56
f 135//76 47//76 52//76 136//76
f 165//63 46//63 51//63 166//63
f 158//63 45//63 50//63 159//63
f 150//63 44//63 49//63 151//63
f 142//55 43//55 48//55 143//55
f 134//77 42//77 47//77 135//77
f 164//62 41//62 46//62 165//62
f 157//62 40//62 45//62 158//62
f 149//62 39//62 44//62 150//62
f 141//54 38//54 43//54 142//54
f 133//78 37//78 42//78 134//78
f 163//61 36//61 41//61 164//61
f 156//61 35//61 40//61 157//61
f 148//61 34//61 39//61 149//61
f 140//53 33//53 38//53 141//53
f 132//79 32//79 37//79 133//79
f 162//60 31//60 36//60 163//60
f 155//60 30//60 35//60 156//60
f 147//60 29//60 34//60 148//60
f 139//52 28//52 33//52 140//52
f 131//80 27//80 32//80 132//80
f 161//59 26//59 31//59 162//59
f 154//59 25//59 30//59 155//59
f 146//59 24//59 29//59 147//59
f 138//51 23//51 28//51 139//51
f 130//81 22//81 27//81 131//81
f 168//58 17//58 26//58 161//58
f 153//58 18//58 25//58 154//58
f 145//58 19//58 24//58 146//58
f 137//50 20//50 23//50 138//50
f 129//82 21//82 22//82 130//82
f 106//83 105//83 71//83 72//83
f 100//84 99//84 63//84 64//84
f 102//85 101//85 58//85 59//85
f 103//86 98//86 61//86 62//86
f 104//87 100//87 64//87 57//87
f 101//88 104//88 57//88 58//88
f 97//89 102//89 59//89 60//89
f 99//90 103//90 62//90 63//90
f 114//91 113//91 74//91 75//91
f 108//92 107//92 69//92 70//92
f 110//93 109//93 67//93 68//93
f 112//94 111//94 65//94 66//94
f 111//95 106//95 72//95 65//95
f 105//96 108//96 70//96 71//96
f 107//97 110//97 68//97 69//97
f 109//98 112//98 66//98 67//98
f 122//99 121//99 88//99 81//99
f 116//100 115//100 79//100 80//100
f 118//101 117//101 77//101 78//101
f 119//102 114//102 75//102 76//102
f 113//103 120//103 73//103 74//103
f 120//104 116//104 80//104 73//104
f 115//105 118//105 78//105 79//105
f 117//106 119//106 76//106 77//106
f 82//107 81//107 88//107 87//107 86//107 85//107 84//107 83//107
f 124//108 123//108 86//108 87//108
f 126//109 125//109 84//109 85//109
f 128//110 127//110 82//110 83//110
f 121//111 124//111 87//111 88//111
f 123//112 126//112 85//112 86//112
f 125//113 128//113 83//113 84//113
f 127//114 122//114 81//114 82//114
