# Blender v2.77 (sub 0) OBJ File: 'CandyCane.blend'
# www.blender.org
mtllib PresentBlue.mtl
o Cube_Cube.001
v -0.591948 -0.005058 0.591948
v -0.591948 1.156091 0.591948
v -0.591948 -0.005058 -0.591948
v -0.591948 1.156091 -0.591948
v 0.591948 -0.005058 0.591948
v 0.591948 1.156091 0.591948
v 0.591948 -0.005058 -0.591948
v 0.591948 1.156091 -0.591948
v -0.133794 1.156091 -0.591948
v 0.133793 1.156091 -0.591948
v 0.133793 -0.005058 -0.591948
v -0.133794 -0.005058 -0.591948
v 0.133793 1.156091 0.591948
v -0.133794 1.156091 0.591948
v -0.133794 -0.005058 0.591948
v 0.133793 -0.005058 0.591948
v -0.591948 1.156091 0.114103
v -0.591948 1.156091 -0.114103
v -0.591948 -0.005058 -0.114103
v -0.591948 -0.005058 0.114103
v 0.591948 1.156091 -0.114103
v 0.591948 1.156091 0.114103
v 0.591948 -0.005058 0.114103
v 0.591948 -0.005058 -0.114103
v 0.133793 1.156091 -0.114103
v 0.133793 1.156091 0.114103
v -0.133794 1.156091 -0.114103
v -0.133794 1.156091 0.114103
v -0.133794 -0.005058 -0.114103
v -0.133794 -0.005058 0.114103
v 0.133793 -0.005058 -0.114103
v 0.133793 -0.005058 0.114103
v -0.140649 1.191228 -0.622280
v 0.140649 1.191228 -0.622280
v 0.140649 -0.029419 -0.622280
v -0.140649 -0.029419 -0.622280
v 0.140649 1.191228 0.622280
v -0.140649 1.191228 0.622280
v -0.140649 -0.029419 0.622280
v 0.140649 -0.029419 0.622280
v 0.140649 1.191228 0.119949
v -0.140649 1.191228 0.119949
v -0.140649 -0.029419 0.119949
v 0.140649 -0.029419 0.119949
v -0.622280 1.191228 0.119949
v -0.622280 1.191228 -0.119949
v -0.622280 -0.029419 -0.119949
v -0.622280 -0.029419 0.119949
v 0.622280 1.191228 -0.119949
v 0.622280 1.191228 0.119949
v 0.622280 -0.029419 0.119949
v 0.622280 -0.029419 -0.119949
v 0.140649 1.191228 -0.119949
v -0.140649 1.191228 -0.119949
v -0.140649 -0.029419 -0.119949
v 0.140649 -0.029419 -0.119949
v 0.086061 1.308064 -0.047451
v 0.086061 1.308064 0.047451
v -0.086061 1.308064 -0.047451
v -0.086061 1.308064 0.047451
v 0.270166 1.255876 -0.077043
v 0.270166 1.255876 0.083905
v 0.270166 1.340869 -0.077043
v 0.270166 1.340869 0.083905
v -0.289154 1.268048 -0.074718
v -0.289154 1.268048 0.074718
v -0.289154 1.345638 -0.074718
v -0.289154 1.345638 0.074718
vn -1.000000 0.000000 0.000000
vn 0.000000 0.000000 -1.000000
vn 1.000000 0.000000 0.000000
vn 0.000000 0.000000 1.000000
vn 0.000000 -1.000000 0.000000
vn 0.000000 1.000000 0.000000
vn 0.000000 0.233400 -0.972400
vn -0.981500 -0.191500 0.000000
vn 0.962600 0.270900 0.000000
vn 0.000000 -0.164100 0.986400
vn -0.962600 0.270900 0.000000
vn 0.189300 0.000000 -0.981900
vn 0.000000 -0.164100 -0.986400
vn 0.981500 -0.191500 0.000000
vn 0.189300 0.000000 0.981900
vn -0.189300 0.000000 0.981900
vn 0.975400 0.000000 0.220500
vn 0.000000 0.527300 -0.849700
vn 0.000000 0.233400 0.972400
vn 0.975400 0.000000 -0.220500
vn -0.975400 0.000000 -0.220500
vn -0.975400 0.000000 0.220500
vn -0.189300 0.000000 -0.981900
vn 0.181900 0.983300 0.000000
vn 0.446600 -0.894700 0.000000
vn 0.000000 0.527300 0.849700
vn -0.175400 0.984500 0.000000
vn -0.098400 0.312700 0.944700
vn -0.060300 0.323000 -0.944500
vn 0.060500 0.333800 0.940700
vn -0.459500 -0.888200 0.000000
vn 0.060500 0.333800 -0.940700
g Cube_Cube.001_Blue
usemtl Blue
s off
f 18//1 4//1 3//1 19//1
f 10//2 8//2 7//2 11//2
f 22//3 6//3 5//3 23//3
f 14//4 2//4 1//4 15//4
f 31//5 11//5 7//5 24//5
f 27//6 9//6 4//6 18//6
f 21//6 8//6 10//6 25//6
f 19//5 3//5 12//5 29//5
f 6//4 13//4 16//4 5//4
f 4//2 9//2 12//2 3//2
f 1//5 20//5 30//5 15//5
f 6//6 22//6 26//6 13//6
f 14//6 28//6 17//6 2//6
f 16//5 32//5 23//5 5//5
f 8//3 21//3 24//3 7//3
f 2//1 17//1 20//1 1//1
f 19//7 29//7 55//7 47//7
g Cube_Cube.001_Ribbon
usemtl Ribbon
f 9//8 27//8 54//8 33//8
f 32//9 16//9 40//9 44//9
f 17//10 28//10 42//10 45//10
f 15//11 30//11 43//11 39//11
f 18//12 19//12 47//12 46//12
f 21//13 25//13 53//13 49//13
f 25//14 10//14 34//14 53//14
f 28//8 14//8 38//8 42//8
f 20//15 17//15 45//15 48//15
f 26//10 22//10 50//10 41//10
f 13//14 26//14 41//14 37//14
f 22//16 23//16 51//16 50//16
f 11//9 31//9 56//9 35//9
f 10//17 11//17 35//17 34//17
f 53//6 34//6 33//6 54//6
f 55//5 36//5 35//5 56//5
f 37//4 38//4 39//4 40//4
f 33//2 34//2 35//2 36//2
f 39//5 43//5 44//5 40//5
f 43//5 55//5 56//5 44//5
f 48//5 47//5 55//5 43//5
f 37//6 41//6 42//6 38//6
f 53//18 54//18 59//18 57//18
f 50//6 49//6 53//6 41//6
f 42//6 54//6 46//6 45//6
f 44//5 56//5 52//5 51//5
f 49//3 50//3 51//3 52//3
f 45//1 46//1 47//1 48//1
f 27//13 18//13 46//13 54//13
f 30//19 20//19 48//19 43//19
f 16//20 13//20 37//20 40//20
f 23//19 32//19 44//19 51//19
f 14//21 15//21 39//21 38//21
f 29//11 12//11 36//11 55//11
f 31//7 24//7 52//7 56//7
f 12//22 9//22 33//22 36//22
f 24//23 21//23 49//23 52//23
f 58//6 57//6 59//6 60//6
f 60//24 59//24 67//24 68//24
f 41//25 53//25 61//25 62//25
f 42//26 41//26 58//26 60//26
f 62//3 61//3 63//3 64//3
f 57//27 58//27 64//27 63//27
f 58//28 41//28 62//28 64//28
f 53//29 57//29 63//29 61//29
f 65//1 66//1 68//1 67//1
f 42//30 60//30 68//30 66//30
f 54//31 42//31 66//31 65//31
f 59//32 54//32 65//32 67//32
